<svg width="30" height="30" viewBox="0 0 30 30" fill="none" xmlns="http://www.w3.org/2000/svg">
<path fill-rule="evenodd" clip-rule="evenodd" d="M12.3773 20.7405V26.3588C12.3773 27.8066 13.551 28.9803 14.9989 28.9803H25.4851C26.9329 28.9803 28.1066 27.8066 28.1066 26.3588V15.8726C28.1066 14.4247 26.9329 13.251 25.4851 13.251H22.7805C22.7394 14.8623 21.8049 16.3891 20.2426 17.1102L12.3773 20.7405ZM19.6105 20.482C19.4489 20.6421 19.3681 20.8555 19.3681 21.1224C19.3681 21.3803 19.4489 21.5893 19.6105 21.7494C19.7721 21.9095 19.9804 21.9895 20.2356 21.9895C20.4992 21.9895 20.7118 21.9095 20.8734 21.7494C21.035 21.5893 21.1158 21.3803 21.1158 21.1224C21.1158 20.8555 21.035 20.6421 20.8734 20.482C20.7118 20.3219 20.4992 20.2418 20.2356 20.2418C19.9804 20.2418 19.7721 20.3219 19.6105 20.482Z" fill="black"/>
<path fill-rule="evenodd" clip-rule="evenodd" d="M3.39747 5.63638C2.0829 6.24313 1.50909 7.80067 2.11584 9.11524L6.51029 18.6362C7.11703 19.9508 8.67457 20.5246 9.98914 19.9178L19.5101 15.5234C20.8247 14.9167 21.3985 13.3591 20.7917 12.0445L16.3973 2.52357C15.7906 1.20899 14.233 0.635189 12.9184 1.24194L3.39747 5.63638ZM16.4613 13.0882C16.3495 12.8459 16.3334 12.6183 16.413 12.4052C16.4926 12.1921 16.6482 12.0321 16.8799 11.9252C17.1193 11.8147 17.3459 11.7983 17.5597 11.8759C17.7735 11.9536 17.9363 12.1135 18.0481 12.3558C18.1562 12.59 18.1704 12.8136 18.0908 13.0267C18.0112 13.2397 17.8517 13.4015 17.6123 13.512C17.3806 13.6189 17.1579 13.6336 16.9441 13.5559C16.7303 13.4783 16.5694 13.3224 16.4613 13.0882ZM12.7509 4.47104C12.6713 4.68412 12.6874 4.91179 12.7992 5.15405C12.9073 5.38824 13.0683 5.54415 13.2821 5.6218C13.4959 5.69944 13.7186 5.6848 13.9503 5.57788C14.1896 5.46739 14.3491 5.30561 14.4288 5.09254C14.5084 4.87946 14.4941 4.65583 14.3861 4.42164C14.2742 4.17938 14.1114 4.01942 13.8976 3.94178C13.6838 3.86414 13.4572 3.88056 13.2179 3.99105C12.9862 4.09797 12.8306 4.25797 12.7509 4.47104ZM10.6632 10.9522C10.5514 10.7099 10.5353 10.4822 10.6149 10.2691C10.6945 10.0561 10.8501 9.89607 11.0818 9.78915C11.3212 9.67867 11.5478 9.66225 11.7616 9.73989C11.9754 9.81753 12.1382 9.97748 12.25 10.2197C12.3581 10.4539 12.3723 10.6776 12.2927 10.8906C12.2131 11.1037 12.0536 11.2655 11.8142 11.376C11.5826 11.4829 11.3598 11.4975 11.146 11.4199C10.9322 11.3423 10.7713 11.1863 10.6632 10.9522ZM8.47883 16.0673C8.39921 16.2803 8.4153 16.508 8.52712 16.7503C8.63521 16.9844 8.79616 17.1404 9.00997 17.218C9.22377 17.2956 9.4465 17.281 9.67815 17.1741C9.91753 17.0636 10.077 16.9018 10.1567 16.6887C10.2363 16.4757 10.222 16.252 10.114 16.0178C10.0021 15.7756 9.83932 15.6156 9.62552 15.538C9.41171 15.4604 9.18512 15.4768 8.94575 15.5873C8.71409 15.6942 8.55845 15.8542 8.47883 16.0673ZM4.86508 8.81607C4.75326 8.5738 4.73716 8.34613 4.81679 8.13306C4.89641 7.91998 5.05205 7.75999 5.2837 7.65306C5.52308 7.54258 5.74967 7.52616 5.96348 7.6038C6.17728 7.68144 6.34009 7.84139 6.45191 8.08366C6.56 8.31785 6.57423 8.54148 6.49461 8.75455C6.41499 8.96763 6.25549 9.12941 6.01611 9.23989C5.78446 9.34682 5.56173 9.36145 5.34792 9.28381C5.13412 9.20617 4.97317 9.05025 4.86508 8.81607Z" fill="black"/>
</svg>
