<svg width="31" height="32" viewBox="0 0 31 32" fill="none" xmlns="http://www.w3.org/2000/svg">
<rect y="13.35" width="15.0173" height="19.3079" rx="3" transform="rotate(-15 0 13.35)" fill="black"/>
<rect x="12.5763" y="0.900459" width="17.0173" height="21.3079" rx="4" transform="rotate(6.03162 12.5763 0.900459)" fill="black" stroke="white" stroke-width="2"/>
<path d="M23.806 9.15236C23.7387 9.78955 23.3578 10.5087 22.6634 11.3097C22.5831 11.4163 22.4897 11.5387 22.383 11.677C22.2889 11.8052 22.188 11.9441 22.0801 12.0938C21.8111 12.353 21.5598 12.6083 21.3261 12.8598C21.0925 13.1112 20.8708 13.3582 20.6611 13.6006C20.2531 14.0868 20.0076 14.7224 19.9247 15.5075L19.4126 15.4534C19.5184 14.4521 19.7172 13.7138 20.009 13.2384C20.1343 13.033 20.2715 12.8231 20.4207 12.6088C20.5825 12.3843 20.7563 12.1553 20.942 11.9218C21.051 11.7607 21.1532 11.6104 21.2485 11.4709C21.3438 11.3314 21.4265 11.2021 21.4966 11.0829C22.167 10.2908 22.5317 9.61603 22.5906 9.05849C22.6615 8.38716 22.5434 7.81668 22.2364 7.34704C21.8922 6.79294 21.3958 6.48164 20.7473 6.41313C20.0873 6.34342 19.5237 6.45071 19.0565 6.73501C18.6522 6.96843 18.4308 7.26719 18.3923 7.6313C18.3731 7.81336 18.4739 8.00234 18.6948 8.19826C18.9738 8.38881 19.0657 8.66313 18.9703 9.02123C18.8833 9.51827 18.5895 9.74035 18.0888 9.68747C17.8612 9.66343 17.6747 9.52292 17.5293 9.26595C17.3839 9.00897 17.3316 8.68705 17.3725 8.30018C17.4614 7.45818 17.8527 6.80344 18.5464 6.33596C19.1898 5.90919 19.9609 5.74329 20.8598 5.83824C21.8269 5.9404 22.5769 6.30151 23.1097 6.92155C23.6652 7.544 23.8973 8.2876 23.806 9.15236ZM20.2455 18.6517C20.2178 18.9135 20.109 19.1263 19.9191 19.2903C19.728 19.4657 19.5073 19.5402 19.257 19.5138C19.0067 19.4873 18.8007 19.3678 18.6391 19.1551C18.4876 18.955 18.4257 18.7241 18.4534 18.4624C18.481 18.2007 18.5898 17.9879 18.7797 17.8238C18.9696 17.6598 19.1954 17.5916 19.4571 17.6193C19.7074 17.6457 19.9083 17.759 20.0598 17.9591C20.2112 18.1592 20.2731 18.39 20.2455 18.6517Z" fill="white" stroke="white"/>
</svg>
