<svg width="30" height="30" viewBox="0 0 30 30" fill="none" xmlns="http://www.w3.org/2000/svg">
<path fill-rule="evenodd" clip-rule="evenodd" d="M11.7659 8.99084L4.95109 10.8169C3.3507 11.2457 2.40095 12.8907 2.82977 14.4911L5.94096 26.1022C6.36979 27.7026 8.01479 28.6523 9.61519 28.2235L17.3582 26.1488C18.9585 25.72 19.9083 24.075 19.4795 22.4746L19.2508 21.6213L15.501 21.2251C12.7549 20.9349 10.7639 18.4735 11.0541 15.7274L11.7659 8.99084Z" fill="black"/>
<path fill-rule="evenodd" clip-rule="evenodd" d="M17.6048 1.31525C15.9571 1.14116 14.4802 2.33573 14.3061 3.98342L13.043 15.9376C12.8689 17.5853 14.0635 19.0621 15.7112 19.2362L23.6829 20.0785C25.3306 20.2526 26.8074 19.058 26.9815 17.4103L28.2446 5.45619C28.4187 3.8085 27.2242 2.33166 25.5765 2.15756L17.6048 1.31525ZM19.1799 7.8381L19.5779 7.87834L20.142 5.95735C20.2355 5.88104 20.391 5.82708 20.6086 5.79548C20.8263 5.76388 21.1049 5.76525 21.4445 5.7996C21.7628 5.83179 22.0276 5.91753 22.2386 6.0568C22.4508 6.18546 22.6161 6.35228 22.7348 6.55726C22.8651 6.7527 22.9503 6.97038 22.9904 7.21029C23.0421 7.44067 23.0562 7.67259 23.0326 7.90607C22.9983 8.24567 22.904 8.54169 22.7498 8.79412C22.6073 9.03702 22.4341 9.26608 22.23 9.48131C22.0271 9.68593 21.8082 9.88894 21.5734 10.0903C21.3397 10.2811 21.1203 10.4894 20.9152 10.7153C20.7101 10.9411 20.5289 11.1962 20.3715 11.4805C20.2258 11.7552 20.1336 12.0836 20.0949 12.4656C20.0649 12.7628 20.0715 13.069 20.1146 13.3843L20.433 13.4165C20.4781 12.9708 20.6021 12.592 20.8052 12.2802C21.0189 11.9694 21.2723 11.6895 21.5656 11.4404C21.8588 11.1913 22.1716 10.9603 22.5041 10.7473C22.8376 10.5237 23.1462 10.2815 23.4298 10.0208C23.7241 9.76106 23.9739 9.46468 24.1791 9.13164C24.396 8.78906 24.5286 8.37898 24.5769 7.90142C24.6145 7.52998 24.5857 7.17863 24.4905 6.84738C24.406 6.5172 24.2529 6.22833 24.0314 5.98079C23.8215 5.7237 23.5426 5.51324 23.1946 5.3494C22.8584 5.17602 22.4515 5.06519 21.9739 5.01689C21.3053 4.94928 20.7322 4.94493 20.2545 5.00383C19.7885 5.0532 19.3415 5.17954 18.9136 5.38285C18.9142 5.80103 18.9444 6.24365 19.0044 6.71072C19.0655 7.16718 19.124 7.54297 19.1799 7.8381ZM19.4686 14.5251C19.2476 14.6957 19.121 14.9402 19.0888 15.2586C19.0577 15.5664 19.1333 15.8259 19.3156 16.0374C19.498 16.2488 19.7483 16.3706 20.0667 16.4028C20.3957 16.436 20.6706 16.3674 20.8916 16.1967C21.1126 16.0261 21.2386 15.7869 21.2697 15.4791C21.3019 15.1608 21.2268 14.8959 21.0445 14.6844C20.8622 14.473 20.6066 14.3507 20.2776 14.3174C19.9592 14.2852 19.6895 14.3544 19.4686 14.5251Z" fill="black"/>
</svg>
