<svg width="30" height="30" viewBox="0 0 30 30" fill="none" xmlns="http://www.w3.org/2000/svg">
<path d="M9.15505 14.9887C9.15505 14.1967 9.31372 13.441 9.60043 12.7515L3.36434 9.15116C2.46463 10.9403 1.98865 12.9279 1.98865 14.9887C1.98865 18.4641 3.34208 21.7315 5.79955 24.1891C6.42307 24.813 7.10784 25.3726 7.84349 25.8593L11.4436 19.6237C10.053 18.5543 9.15505 16.8746 9.15505 14.9887ZM5.79955 5.78829C5.17561 6.41182 4.61604 7.09659 4.12932 7.83224L10.3649 11.4323C11.2878 10.2323 12.6653 9.39919 14.2376 9.19345V2.00006C11.0489 2.18313 8.07653 3.51141 5.79955 5.78829Z" fill="black"/>
<path d="M24.2004 5.78829C21.9234 3.51141 18.9511 2.18313 15.7624 2.00006V9.19345C18.6263 9.56818 20.8449 12.0241 20.8449 14.9887C20.8449 18.2116 18.2229 20.8336 15 20.8336C14.2079 20.8336 13.4524 20.6749 12.7629 20.3882L9.16248 26.6243C10.9515 27.5241 12.9392 28 15 28C18.4754 28 21.7429 26.6466 24.2004 24.1891C26.6579 21.7316 28.0113 18.4641 28.0113 14.9887C28.0113 11.5132 26.6579 8.24581 24.2004 5.78829Z" fill="black"/>
</svg>
